<svg style="fill-rule:evenodd;clip-rule:evenodd;stroke-linecap:round;stroke-linejoin:round;" xmlns:vectornator="http://vectornator.io" xmlns:xlink="http://www.w3.org/1999/xlink" xmlns="http://www.w3.org/2000/svg" xml:space="preserve" version="1.1" viewBox="0 0 792 792">
<path stroke="#ffffff" stroke-width="17.74" d="M445.326+167.069C437.874+173.459+445.857+224.794+445.009+235.836C442.259+271.64+426.988+310.246+420.943+346.04C419.508+354.536+407.367+356.582+406.627+366.216C405.802+376.967+410.448+379.649+412.704+388.667C419.087+414.186+383.523+469.667+410.004+488.456C426.574+500.212+439.272+416.648+439.932+412.744C566.947+466.207+668.37+568.577+784.986+638.528C714.422+561.098+622.159+499.188+532.456+445.381C523.609+440.074+441.963+400.11+441.882+396.582C441.486+379.379+443.522+362.11+446.54+345.169C447.682+338.762+487.248+322.776+493.937+319.023C546.767+289.379+599.172+265.845+635.255+214.989C640.438+207.683+641.873+193.839+641.759+185.702C640.843+120.313+580.602+80.07+526.454+126.494C507.893+142.407+487.889+158.46+474.18+179.214C467.017+190.057+460.873+210.381+451.298+218.59C447.995+205.386+454.014+177.202+445.326+167.069ZM517.982+145.036C538.317+126.696+561.786+117.151+591.532+119.436C643.255+123.409+638.093+200.003+615.082+228.332C586.443+263.588+543.638+279.89+505.215+301.451C492.729+308.457+480.299+315.539+467.471+321.955C461.036+325.174+449.055+338.981+448.274+331.828C440.272+258.492+458.082+218.144+498.583+166.195C504.784+158.241+511.204+151.149+517.982+145.036Z" fill="#ffffff" stroke-linecap="round" opacity="1" stroke-linejoin="round"/>
<path stroke="#ffffff" stroke-width="17.74" d="M94.1972+224.095C78.8631+237.679+65.3737+253.307+53.6706+271.024C45.9012+282.786+40.7439+312.403+31.4409+320.379C29.209+311.455+28.8002+307.937+21.5684+301.181C18.9681+310.431+27.9756+328.562+27.1046+339.903C22.0542+405.658+21.2959+468.803+25.6087+534.815C20.7276+535.407+15.7901+534.044+11.3998+535.142C11.6735+531.579+11.8452+533.237+11.0738+530.153C0.520437+539.201+24.3897+542.057+26.6949+548.373C29.5946+556.318+24.4744+577.991+37.762+579.718C46.7844+580.891+46.1305+563.219+47.5209+554.228C110.56+571.95+193.51+572.641+248.287+525.678C287.271+492.256+332.812+451.222+329.187+395.727C325.211+334.87+212.495+349.312+178.199+357.891C192.695+344.584+207.386+331.485+221.689+317.97C243.015+297.819+289.076+253.156+291.637+219.801C297.362+145.268+182.854+170.889+145.748+189.448C126.71+198.97+109.531+210.511+94.1972+224.095ZM107.769+224.561C135.41+201.995+169.104+185.827+204.644+179.788C224.642+176.389+283.064+179.222+283.068+211.342C283.07+231.767+265.548+252.426+253.897+267.964C225.854+305.364+188.611+335.792+153.47+365.92C133.486+383.052+97.5327+385.185+75.4873+402.482C63.424+411.947+54.2788+425.563+40.565+432.422C35.2571+435.077+40.1906+420.556+39.8037+414.634C38.9961+402.273+37.7876+389.911+36.9793+377.539C33.5985+325.793+49.6989+286.357+82.3028+249.111C90.0164+240.299+98.5553+232.083+107.769+224.561ZM57.2352+435.83C76.8004+420.363+107.997+412.856+127.659+397.269C166.35+366.597+219.365+353.613+266.49+362.544C295.185+367.983+324.958+387.144+316.608+421.001C297.715+497.605+194.974+559.17+117.806+553.243C108.768+552.549+50.2579+548.314+46.4347+540.67C36.0427+519.892+32.934+477.662+42.4115+454.549C45.4939+447.032+50.7134+440.986+57.2352+435.83Z" fill="#ffffff" stroke-linecap="round" opacity="1" stroke-linejoin="round"/>
</svg>
